<?xml version="1.0" standalone="no"?>
<!DOCTYPE svg PUBLIC "-//W3C//DTD SVG 20010904//EN"
 "http://www.w3.org/TR/2001/REC-SVG-20010904/DTD/svg10.dtd">
<svg version="1.0" xmlns="http://www.w3.org/2000/svg"
 width="1146.000000pt" height="1146.000000pt" viewBox="0 0 1146.000000 1146.000000"
 preserveAspectRatio="xMidYMid meet">
<metadata>
Created by potrace 1.11, written by Peter Selinger 2001-2013
</metadata>
<g transform="translate(0.000000,1146.000000) scale(0.100000,-0.100000)"
fill="#000000" stroke="none">
<path d="M6388 9265 c-2 -2 -40 -7 -83 -10 -44 -3 -91 -8 -105 -10 -14 -3 -47
-7 -75 -10 -27 -3 -60 -7 -72 -9 -11 -3 -43 -8 -70 -12 -26 -3 -57 -9 -68 -11
-118 -27 -208 -45 -222 -45 -5 0 -15 -4 -24 -9 -9 -4 -28 -10 -44 -13 -74 -14
-397 -121 -530 -177 -16 -7 -32 -13 -35 -14 -24 -8 -173 -75 -195 -87 -11 -6
-58 -30 -105 -53 -47 -23 -120 -63 -163 -89 -43 -25 -82 -46 -85 -46 -4 0 -25
-14 -46 -30 -21 -16 -43 -27 -47 -24 -5 3 -9 1 -9 -4 0 -5 -30 -29 -67 -53
-74 -47 -252 -176 -268 -193 -5 -6 -30 -27 -55 -46 -173 -134 -398 -360 -572
-574 -10 -11 -23 -27 -29 -35 -35 -41 -141 -189 -201 -281 -37 -58 -73 -110
-78 -117 -6 -7 -10 -14 -10 -17 0 -2 -22 -42 -48 -88 -49 -84 -160 -309 -165
-331 -1 -7 -4 -14 -7 -17 -9 -9 -87 -213 -115 -300 -15 -47 -29 -92 -32 -100
-3 -8 -7 -19 -8 -25 -2 -5 -10 -34 -18 -62 -9 -29 -13 -53 -10 -53 3 0 -1 -7
-8 -17 -8 -9 -13 -19 -11 -22 3 -6 -1 -32 -13 -91 -3 -14 -8 -36 -10 -50 -2
-14 -8 -48 -14 -77 -6 -29 -13 -74 -17 -100 -3 -26 -7 -49 -8 -50 -1 -1 -15 9
-31 24 -115 99 -188 136 -270 136 -76 0 -105 -7 -181 -44 -72 -34 -75 -34 -95
-11 -14 14 -142 134 -269 252 -19 18 -82 76 -140 130 -58 54 -121 112 -140
130 -19 18 -91 85 -160 150 -69 65 -149 140 -179 167 l-54 50 31 79 c17 43 34
88 38 99 13 36 12 203 -1 259 -7 30 -10 57 -7 60 3 3 1 6 -5 6 -6 0 -14 16
-17 35 -4 19 -12 40 -19 47 -7 7 -19 27 -27 43 -8 17 -19 35 -25 41 -5 6 -24
26 -40 45 -280 319 -797 251 -989 -129 -44 -87 -66 -190 -62 -290 5 -115 11
-140 58 -244 17 -38 35 -68 39 -68 5 0 9 -4 9 -10 0 -16 70 -94 121 -135 59
-47 158 -95 229 -110 11 -3 30 -7 43 -10 37 -9 232 -5 232 5 0 1 12 4 27 6 27
5 68 -23 68 -46 0 -5 4 -10 10 -10 10 0 11 -1 190 -191 63 -67 142 -150 175
-185 100 -104 320 -336 370 -389 26 -27 72 -76 102 -107 l55 -57 -36 -50 c-24
-32 -36 -60 -36 -81 0 -29 23 -91 42 -115 5 -5 50 -66 100 -135 50 -68 96
-129 102 -135 6 -6 22 -28 36 -48 14 -20 28 -37 33 -37 4 0 7 -4 7 -10 0 -5 8
-18 17 -28 10 -10 29 -33 43 -52 14 -19 34 -44 46 -56 21 -22 21 -22 2 -53
-11 -17 -24 -31 -29 -31 -5 0 -9 -5 -9 -11 0 -13 -50 -81 -67 -92 -7 -4 -13
-13 -13 -18 0 -6 -14 -32 -32 -57 -53 -79 -63 -95 -88 -142 -14 -25 -29 -51
-34 -59 -6 -7 -11 -20 -13 -29 -1 -9 -7 -18 -12 -20 -6 -2 -11 -11 -11 -21 0
-9 -4 -21 -9 -26 -21 -23 -107 -253 -137 -370 -8 -31 -9 -34 -19 -95 -3 -19
-8 -41 -10 -48 -22 -62 -24 -358 -4 -462 5 -25 11 -54 12 -65 22 -127 101
-315 180 -427 23 -33 47 -67 52 -76 22 -32 153 -160 210 -204 67 -52 191 -127
245 -148 19 -7 40 -17 45 -21 18 -13 158 -59 240 -79 90 -21 106 -24 223 -40
80 -11 365 -15 407 -6 12 2 51 7 87 10 37 4 77 9 90 12 13 2 35 6 51 9 81 15
172 37 252 60 50 15 95 28 100 29 19 4 60 18 90 31 17 7 82 34 145 61 63 27
156 70 205 95 l91 47 119 -58 c66 -32 154 -72 195 -89 41 -18 84 -36 95 -41
163 -76 607 -195 837 -226 18 -2 53 -7 78 -10 25 -3 56 -7 70 -9 152 -21 588
-27 760 -11 52 4 106 9 120 11 14 1 48 5 75 9 28 4 64 9 80 11 28 4 45 7 115
20 14 3 43 7 65 11 22 3 48 7 57 10 10 3 29 7 44 10 165 30 543 150 754 241
221 94 577 285 648 347 12 11 22 15 22 10 0 -5 4 -4 8 1 11 15 82 67 82 60 0
-4 6 0 13 7 8 7 42 34 76 58 35 25 74 54 87 65 12 11 38 31 56 45 18 14 45 37
61 52 15 14 27 24 27 21 0 -3 16 10 35 30 19 20 35 34 35 32 0 -3 25 20 55 50
31 30 58 55 60 55 2 0 15 11 29 25 14 14 24 25 23 25 -1 0 32 35 73 78 41 43
91 97 110 121 19 23 46 55 60 70 14 14 34 39 45 55 11 15 25 33 30 40 21 23
123 162 151 206 16 25 31 47 34 50 3 3 10 14 17 25 7 11 31 52 55 90 119 195
229 423 311 645 63 170 128 403 153 545 9 56 10 57 104 123 47 34 90 64 95 69
6 4 30 24 55 43 25 19 50 39 57 45 6 5 33 28 58 50 76 64 324 317 325 330 0 5
32 44 60 75 8 9 35 45 60 80 24 36 48 67 52 68 4 2 8 8 8 13 0 5 15 32 33 61
36 56 132 229 132 238 0 3 13 34 30 70 16 36 30 72 31 80 2 8 8 23 13 35 16
29 82 267 77 273 -3 2 -1 14 4 27 22 58 32 332 16 440 -4 28 -9 66 -12 85 -27
183 -154 447 -273 571 -23 23 -41 45 -41 50 0 5 -3 9 -7 9 -5 1 -32 23 -62 50
-59 54 -193 150 -210 150 -6 0 -11 5 -11 11 0 5 -4 8 -9 5 -5 -4 -11 -3 -13 1
-7 16 -245 114 -275 114 -2 0 -17 5 -35 11 -18 5 -42 11 -53 13 -11 2 -20 4
-20 5 0 3 -76 17 -140 26 -11 1 -20 3 -20 4 0 5 -132 12 -245 12 -128 1 -244
-6 -300 -17 -14 -3 -41 -7 -60 -9 -19 -2 -55 -9 -80 -14 -25 -6 -58 -13 -75
-16 -16 -3 -39 -8 -50 -11 -11 -3 -45 -10 -75 -17 -30 -6 -57 -14 -60 -17 -3
-4 -12 -6 -20 -6 -8 0 -18 -3 -21 -8 -3 -4 -16 -9 -27 -10 -12 -1 -22 -5 -22
-10 0 -4 -5 -5 -10 -2 -6 4 -17 2 -25 -5 -10 -9 -19 -8 -37 1 -30 16 -142 101
-146 111 -2 4 -10 8 -17 8 -7 0 -15 4 -17 8 -1 5 -32 29 -68 53 -36 24 -66 47
-68 51 -2 5 -7 8 -12 8 -5 0 -35 18 -68 40 -126 83 -400 221 -582 292 -63 25
-124 49 -135 53 -11 5 -22 9 -25 9 -3 1 -36 11 -75 23 -208 66 -402 111 -590
139 -22 3 -51 8 -65 10 -14 2 -52 6 -85 9 -33 4 -73 9 -90 12 -36 6 -631 14
-637 8z m-5685 -1813 c42 -17 127 -95 127 -117 0 -8 4 -15 9 -15 19 0 34 -144
18 -167 -5 -7 -7 -13 -3 -13 3 0 -6 -21 -21 -47 -53 -97 -134 -144 -240 -139
-221 9 -326 270 -176 434 31 34 68 58 113 73 38 12 130 7 173 -9z"/>
</g>
</svg>
