<?xml version="1.0" encoding="UTF-8" standalone="no"?>
<!DOCTYPE svg PUBLIC "-//W3C//DTD SVG 1.1//EN" "http://www.w3.org/Graphics/SVG/1.1/DTD/svg11.dtd">
<svg width="100%" height="100%" viewBox="0 0 1146 1018" version="1.1" xmlns="http://www.w3.org/2000/svg" xmlns:xlink="http://www.w3.org/1999/xlink" xml:space="preserve" xmlns:serif="http://www.serif.com/" style="fill-rule:evenodd;clip-rule:evenodd;stroke-linejoin:round;stroke-miterlimit:2;">
    <g transform="matrix(4.16667,0,0,4.16667,427.926,433.069)">
        <path d="M0,-68.144C14.2,-76.43 30.49,-81.081 46.92,-81.559C63.504,-82.107 80.211,-78.451 95.012,-70.942C105.781,-65.474 115.625,-58.096 123.698,-49.106C123.898,-49.053 124.296,-48.946 124.496,-48.894C121.33,-48.325 118.165,-47.466 115.143,-46.304C110.394,-50.042 105.457,-53.613 100.059,-56.386C78.538,-67.805 52.526,-69.633 29.296,-62.688C14.09,-58.202 -0.094,-50.174 -11.586,-39.233C-26.351,-25.246 -36.661,-6.314 -39.172,13.963C-40.919,12.471 -42.648,10.79 -44.906,10.119C-46.366,9.665 -47.92,9.968 -49.352,10.394C-48.808,2.954 -47.381,-4.416 -45.172,-11.537C-37.896,-35.176 -21.402,-55.773 0,-68.144" style="fill:white;fill-rule:nonzero;"/>
    </g>
    <g transform="matrix(4.16667,0,0,4.16667,634.534,825.697)">
        <path d="M0,-152.404C19.742,-154.163 40.293,-149.116 56.285,-137.218C68.002,-128.597 76.942,-116.237 81.262,-102.332C86.26,-86.676 85.146,-69.372 79.008,-54.198C73.389,-40.117 63.72,-27.778 51.729,-18.551C37.848,-7.877 20.891,-1.226 3.447,0.32C-12.511,1.759 -28.948,-1.194 -43.16,-8.678C-50.693,-12.633 -57.572,-17.86 -63.291,-24.166C-70.988,-32.616 -76.501,-43.025 -79.184,-54.133C-81.969,-65.527 -81.683,-77.6 -78.672,-88.921C-75.045,-102.675 -67.54,-115.293 -57.581,-125.407C-42.404,-140.858 -21.554,-150.518 0,-152.404M0.319,-117.424C-4.421,-113.252 -8.29,-107.612 -8.944,-101.199C-16.163,-101.608 -23.464,-101.35 -30.547,-99.796C-37.88,-98.209 -45.095,-95.362 -50.927,-90.545C-55.762,-86.59 -59.396,-81.097 -60.764,-74.966C-62.587,-67.085 -60.984,-58.841 -58.101,-51.417C-54.935,-43.348 -50.313,-35.867 -44.657,-29.307C-39.532,-23.434 -33.438,-18.199 -26.232,-15.071C-20.797,-12.694 -14.605,-11.803 -8.797,-13.222C-3.076,-14.559 1.955,-17.937 6.105,-22.007C7.006,-22.743 7.734,-23.758 8.769,-24.293C11.529,-19.995 14.352,-15.713 17.64,-11.795C19.264,-9.922 20.948,-7.97 23.197,-6.834C24.875,-6.011 26.809,-6.686 28.273,-7.639C31.025,-9.451 33.263,-11.909 35.447,-14.342C40.053,-19.623 44.195,-25.291 48.191,-31.042C48.743,-31.782 48.584,-32.775 48.674,-33.638C47.201,-37.229 45.676,-40.796 44.195,-44.383L44.265,-44.669C47.586,-45.949 50.801,-47.483 54.02,-49.004C57.766,-50.816 60.575,-54.165 62.301,-57.9C64.996,-63.723 65.671,-70.255 65.549,-76.607C65.254,-86.304 63.082,-95.935 59.274,-104.855C56.751,-110.593 53.536,-116.2 48.833,-120.433C43.009,-125.452 35.214,-127.861 27.586,-127.767C17.668,-127.656 7.804,-123.934 0.319,-117.424" style="fill:white;fill-rule:nonzero;"/>
    </g>
    <g transform="matrix(4.16667,0,0,4.16667,986.825,438.476)">
        <path d="M0,-43.083C6.912,-43.271 14.196,-41.856 19.762,-37.533C24.404,-33.991 27.251,-28.355 27.627,-22.552C28.191,-14.896 25.427,-7.378 21.468,-0.937C21.218,-0.675 21.096,0.188 20.589,-0.197C19.909,-7.874 18.76,-15.595 16.122,-22.867C13.329,-30.601 7.501,-36.748 1.272,-41.897C0.858,-42.31 0.2,-42.49 0,-43.083" style="fill:white;fill-rule:nonzero;"/>
    </g>
    <g transform="matrix(4.16667,0,0,4.16667,935.413,491.112)">
        <path d="M0,-53.72C1.856,-54.264 3.746,-54.742 5.668,-54.988C11.464,-50.861 17.021,-46.182 21.07,-40.264C24.748,-34.894 26.175,-28.396 27.312,-22.089C28.143,-17.074 28.67,-12.007 28.928,-6.932C26.375,-3.93 23.549,-1.14 20.437,1.268C21.222,-18.809 13.705,-39.029 0,-53.72" style="fill:white;fill-rule:nonzero;"/>
    </g>
    <g transform="matrix(-4.11902,0.628325,0.628325,4.11902,70.8861,384.076)">
        <path d="M1.976,-12.108C-1.421,-12.389 -4.621,-9.439 -4.615,-6.035C-4.829,-2.506 -1.535,0.67 1.976,0.366C5.334,0.275 8.157,-2.919 7.866,-6.259C7.742,-9.331 5.043,-11.992 1.976,-12.108" style="fill:white;fill-rule:nonzero;"/>
    </g>
    <g transform="matrix(4.16667,0,0,4.16667,762.257,499.434)">
        <path d="M0,-27.051C5.808,-28.846 12.561,-26.356 15.823,-21.231C18.752,-16.884 18.928,-10.888 16.27,-6.372C13.337,-1.113 6.83,1.795 0.957,0.408C-4.989,-0.79 -9.737,-6.201 -10.146,-12.254C-10.83,-18.777 -6.319,-25.321 0,-27.051" style="fill:white;fill-rule:nonzero;"/>
    </g>
    <g transform="matrix(4.16667,0,0,4.16667,1015.69,904.034)">
        <path d="M0,-86.741C3.03,-88.765 5.959,-90.941 8.719,-93.318C8.576,-78.872 5.132,-64.484 -1.158,-51.487C-12.049,-28.832 -31.828,-10.637 -55.332,-1.717C-72.788,4.99 -92.146,6.577 -110.476,2.937C-125.343,0.009 -139.498,-6.412 -151.521,-15.626C-147.525,-17.017 -143.678,-18.808 -139.964,-20.829C-137.408,-19.724 -134.934,-18.256 -132.308,-17.218C-122.95,-13.209 -112.905,-10.837 -102.759,-10.117C-72.317,-7.888 -41.173,-20.633 -21.06,-43.593C-10.36,-55.744 -2.777,-70.75 0,-86.741" style="fill:white;fill-rule:nonzero;"/>
    </g>
    <g transform="matrix(4.16667,0,0,4.16667,492.855,627.155)">
        <path d="M0,-23.006C5.86,-24.654 12.503,-20.928 14.18,-15.088C16.049,-9.542 13.022,-2.974 7.619,-0.757C2.38,1.648 -4.368,-0.536 -7.215,-5.542C-10.2,-10.343 -9.015,-17.182 -4.568,-20.683C-3.239,-21.779 -1.669,-22.576 0,-23.006" style="fill:white;fill-rule:nonzero;"/>
    </g>
    <g transform="matrix(-4.09626,0.762728,0.762728,4.09626,730.507,588.334)">
        <path d="M2.982,-7.486C0.369,-8.244 -2.541,-6.025 -2.446,-3.297C-2.526,-0.582 0.405,1.573 2.982,0.784C5.412,0.245 6.941,-2.644 5.931,-4.944C5.434,-6.203 4.293,-7.169 2.982,-7.486" style="fill:white;fill-rule:nonzero;"/>
    </g>
    <g transform="matrix(4.16667,0,0,4.16667,235.617,774.271)">
        <path d="M0,-36.928C2.123,-39.831 4.741,-42.428 7.514,-44.727C10.72,-25.639 21.604,-8.066 37.051,3.554C37.664,4.167 38.65,4.474 39.067,5.222C37.488,5.967 35.873,6.642 34.241,7.26C33.754,7.378 33.219,7.799 32.716,7.509C25.877,4.727 20.029,-0.098 15.379,-5.775C7.988,-14.843 3.19,-25.75 0,-36.928" style="fill:white;fill-rule:nonzero;"/>
    </g>
    <g transform="matrix(4.16667,0,0,4.16667,659.498,631.413)">
        <path d="M0,-9.398C1.473,-10.2 3.477,-9.648 4.377,-8.249C5.44,-6.76 4.994,-4.462 3.44,-3.489C1.693,-2.388 -0.061,-1.3 -1.823,-0.225C-3.483,0.802 -5.909,0.013 -6.653,-1.791C-7.39,-3.333 -6.735,-5.345 -5.239,-6.171C-3.492,-7.247 -1.767,-8.359 0,-9.398" style="fill:white;fill-rule:nonzero;"/>
    </g>
    <g transform="matrix(4.16667,0,0,4.16667,220.793,820.567)">
        <path d="M0,-43.274C0.082,-43.327 0.241,-43.438 0.319,-43.491C2.88,-35.172 6.482,-27.14 11.26,-19.852C16.012,-12.625 22.151,-6.155 29.722,-1.857C29.771,-1.762 29.864,-1.582 29.909,-1.488C22.388,-0.003 14.335,0.217 7.101,-2.653C2.11,-4.592 -2.273,-8.294 -4.572,-13.177C-7.214,-18.628 -7.169,-25.017 -5.64,-30.779C-4.466,-35.221 -2.486,-39.425 0,-43.274" style="fill:white;fill-rule:nonzero;"/>
    </g>
    <g transform="matrix(4.16667,0,0,4.16667,764.881,741.568)">
        <path d="M0,-18.74C1.705,-19.386 3.338,-20.265 5.092,-20.76C6.155,-18.306 7.473,-15.967 8.503,-13.501C3.456,-8.364 -1.48,-3.109 -6.556,2.004L-6.821,2.02C-10.024,-1.722 -13.268,-5.444 -16.588,-9.084L-16.49,-9.366C-14.167,-11.243 -11.713,-12.961 -9.165,-14.523C-6.327,-16.364 -3.071,-17.374 0,-18.74" style="fill:white;fill-rule:nonzero;"/>
    </g>
    <g transform="matrix(4.16667,0,0,4.16667,466.899,442.531)">
        <path d="M0,-99.249C27.006,-108.856 57.406,-108.508 84.174,-98.251C108.86,-88.894 130.299,-71.249 144.246,-48.837L144.397,-48.363C135.367,-52.71 124.84,-53.267 115.143,-51.165C114.942,-51.217 114.545,-51.324 114.345,-51.377C106.271,-60.367 96.428,-67.745 85.658,-73.213C70.857,-80.722 54.15,-84.378 37.566,-83.83C21.137,-83.352 4.847,-78.701 -9.354,-70.415C-30.756,-58.044 -47.25,-37.447 -54.525,-13.808C-56.734,-6.687 -58.161,0.683 -58.705,8.123C-59.789,8.49 -60.775,9.079 -61.785,9.607C-67.625,4.225 -73.389,-1.248 -79.216,-6.65C-74.288,-34.171 -59.213,-59.646 -37.814,-77.585C-26.641,-86.996 -13.77,-94.382 0,-99.249" style="fill:rgb(239,125,0);fill-rule:nonzero;"/>
    </g>
    <g transform="matrix(4.16667,0,0,4.16667,1131.74,1019.93)">
        <path d="M0,-150.699C4.307,-132.47 4.303,-113.248 0.077,-95.003C-5.615,-70.231 -19.387,-47.438 -38.551,-30.76C-49.295,-21.366 -61.695,-13.865 -75.017,-8.748C-90.705,-2.695 -107.653,0 -124.442,-0.777C-141.771,-1.538 -158.92,-6.061 -174.355,-13.975C-187.737,-20.793 -199.766,-30.167 -209.83,-41.299C-199.77,-38.784 -189.082,-40.093 -179.373,-43.442C-167.35,-34.228 -153.194,-27.807 -138.327,-24.879C-119.997,-21.239 -100.64,-22.825 -83.184,-29.532C-59.68,-38.453 -39.9,-56.648 -29.01,-79.303C-22.72,-92.3 -19.275,-106.688 -19.133,-121.134C-10.237,-128.978 -2.945,-139.088 0,-150.699" style="fill:rgb(239,125,0);fill-rule:nonzero;"/>
    </g>
    <g transform="matrix(4.16667,0,0,4.16667,129.403,690.819)">
        <path d="M0,-52.526C3.484,-48.817 7.051,-45.176 10.503,-41.439C9.897,-40.62 9.186,-39.864 8.784,-38.915C8.429,-37.512 9.415,-36.285 10.122,-35.173C13.071,-30.932 16.318,-26.907 19.528,-22.862C14.073,-16.192 9.75,-8.458 7.856,0C7.439,-0.417 7.37,-1.039 7.141,-1.554C1.169,-17.778 -1.301,-35.291 0,-52.526" style="fill:rgb(239,125,0);fill-rule:nonzero;"/>
    </g>
    <g transform="matrix(4.16667,0,0,4.16667,549.992,842.229)">
        <path d="M0,-160.887C23.23,-167.832 49.242,-166.003 70.763,-154.585C76.161,-151.811 81.098,-148.241 85.847,-144.503C88.869,-145.664 92.034,-146.523 95.2,-147.092C104.897,-149.194 115.425,-148.638 124.455,-144.29C129.882,-141.481 134.606,-137.17 137.42,-131.698C141.252,-124.491 141.587,-115.862 139.62,-108.05C136.675,-96.439 129.383,-86.329 120.487,-78.485C117.728,-76.108 114.799,-73.932 111.769,-71.908C108.991,-55.917 101.408,-40.911 90.709,-28.76C70.596,-5.8 39.451,6.945 9.01,4.716C-1.137,3.996 -11.182,1.624 -20.539,-2.385C-23.165,-3.423 -25.64,-4.891 -28.195,-5.996C-31.909,-3.975 -35.757,-2.184 -39.753,-0.793C-49.462,2.556 -60.149,3.865 -70.21,1.35C-76.538,-0.209 -82.541,-3.489 -86.835,-8.446C-90.917,-13.088 -93.343,-19.095 -93.833,-25.239C-94.193,-28.952 -93.801,-32.69 -93.085,-36.339C-91.191,-44.796 -86.868,-52.53 -81.413,-59.201C-84.623,-63.246 -87.87,-67.27 -90.819,-71.512C-91.526,-72.624 -92.513,-73.851 -92.157,-75.254C-91.756,-76.202 -91.044,-76.959 -90.438,-77.777C-93.891,-81.515 -97.457,-85.155 -100.941,-88.865C-105.023,-93.126 -109.031,-97.47 -113.179,-101.666C-117.104,-100.423 -121.559,-100.97 -125.06,-103.146C-128.601,-105.294 -131.124,-109.032 -131.787,-113.126C-132.798,-118.724 -130.106,-124.737 -125.276,-127.739C-121.473,-130.209 -116.479,-130.704 -112.259,-129.043C-108.455,-127.595 -105.343,-124.463 -103.915,-120.651C-102.345,-116.574 -102.778,-111.808 -105.02,-108.066C-103.081,-106.222 -101.113,-104.406 -99.158,-102.578C-93.331,-97.175 -87.567,-91.703 -81.728,-86.321C-80.718,-86.848 -79.731,-87.437 -78.647,-87.805C-77.216,-88.231 -75.662,-88.533 -74.202,-88.079C-71.944,-87.408 -70.215,-85.728 -68.468,-84.235C-65.957,-104.512 -55.646,-123.444 -40.882,-137.431C-29.39,-148.372 -15.206,-156.4 0,-160.887M20.29,-156.372C-1.264,-154.486 -22.114,-144.826 -37.291,-129.375C-47.25,-119.261 -54.755,-106.643 -58.382,-92.889C-61.393,-81.568 -61.679,-69.495 -58.894,-58.1C-56.211,-46.992 -50.698,-36.584 -43.001,-28.134C-37.282,-21.827 -30.403,-16.601 -22.87,-12.646C-8.658,-5.161 7.779,-2.209 23.737,-3.648C41.181,-5.194 58.138,-11.845 72.019,-22.519C84.01,-31.745 93.679,-44.085 99.298,-58.166C105.437,-73.34 106.55,-90.644 101.552,-106.3C97.232,-120.205 88.292,-132.565 76.575,-141.186C60.583,-153.084 40.032,-158.131 20.29,-156.372M104.84,-139.984C105.04,-139.39 105.698,-139.211 106.112,-138.798C112.341,-133.648 118.169,-127.502 120.962,-119.767C123.6,-112.496 124.749,-104.774 125.429,-97.097C125.936,-96.713 126.058,-97.576 126.308,-97.838C130.267,-104.279 133.031,-111.797 132.467,-119.452C132.091,-125.256 129.244,-130.892 124.602,-134.433C119.036,-138.757 111.752,-140.172 104.84,-139.984M92.501,-137.988C106.206,-123.297 113.723,-103.077 112.938,-83C116.05,-85.408 118.876,-88.198 121.429,-91.2C121.171,-96.275 120.644,-101.343 119.813,-106.357C118.676,-112.664 117.249,-119.162 113.571,-124.532C109.522,-130.45 103.965,-135.129 98.169,-139.256C96.247,-139.011 94.357,-138.532 92.501,-137.988M-118.765,-121.628C-121.779,-121.052 -124.046,-118.013 -123.706,-114.958C-123.489,-111.612 -120.217,-108.881 -116.884,-109.298C-113.366,-109.527 -110.59,-113.162 -111.334,-116.618C-111.841,-119.984 -115.448,-122.418 -118.765,-121.628M-75.45,-53.238C-72.26,-42.06 -67.462,-31.153 -60.071,-22.085C-55.421,-16.408 -49.573,-11.583 -42.734,-8.802C-42.231,-8.511 -41.696,-8.932 -41.209,-9.051C-39.577,-9.668 -37.962,-10.344 -36.383,-11.088C-36.8,-11.836 -37.786,-12.143 -38.399,-12.756C-53.847,-24.376 -64.73,-41.949 -67.937,-61.037C-70.709,-58.739 -73.327,-56.141 -75.45,-53.238M-79.008,-48.473C-81.494,-44.624 -83.474,-40.42 -84.647,-35.978C-86.177,-30.216 -86.222,-23.827 -83.58,-18.376C-81.281,-13.492 -76.897,-9.791 -71.907,-7.852C-64.673,-4.982 -56.62,-5.202 -49.099,-6.687C-49.144,-6.781 -49.237,-6.961 -49.286,-7.055C-56.856,-11.354 -62.996,-17.824 -67.748,-25.051C-72.525,-32.339 -76.128,-40.371 -78.688,-48.69C-78.767,-48.637 -78.926,-48.526 -79.008,-48.473" style="fill:rgb(62,78,108);fill-rule:nonzero;"/>
    </g>
    <g transform="matrix(4.16667,0,0,4.16667,635.865,757.161)">
        <path d="M0,-100.975C7.484,-107.486 17.349,-111.207 27.267,-111.318C34.895,-111.412 42.689,-109.003 48.514,-103.985C53.217,-99.752 56.432,-94.145 58.955,-88.407C62.763,-79.487 64.935,-69.855 65.229,-60.158C65.352,-53.807 64.677,-47.275 61.981,-41.451C60.256,-37.717 57.446,-34.368 53.7,-32.556C50.481,-31.034 47.267,-29.5 43.945,-28.22L43.876,-27.934C45.356,-24.347 46.882,-20.781 48.354,-17.19C48.265,-16.327 48.424,-15.333 47.872,-14.593C43.876,-8.843 39.733,-3.174 35.128,2.106C32.943,4.54 30.706,6.998 27.954,8.809C26.489,9.762 24.556,10.437 22.878,9.615C20.629,8.478 18.944,6.527 17.32,4.654C14.032,0.736 11.21,-3.546 8.449,-7.845C7.415,-7.309 6.687,-6.294 5.786,-5.558C1.636,-1.489 -3.396,1.889 -9.116,3.227C-14.925,4.646 -21.116,3.754 -26.552,1.378C-33.758,-1.751 -39.852,-6.986 -44.977,-12.859C-50.633,-19.419 -55.254,-26.899 -58.42,-34.969C-61.304,-42.392 -62.906,-50.637 -61.083,-58.518C-59.716,-64.649 -56.081,-70.142 -51.246,-74.097C-45.414,-78.914 -38.199,-81.761 -30.866,-83.348C-23.783,-84.902 -16.482,-85.16 -9.264,-84.75C-8.609,-91.163 -4.74,-96.803 0,-100.975M30.334,-88.906C24.015,-87.176 19.504,-80.632 20.188,-74.109C20.597,-68.056 25.345,-62.645 31.291,-61.447C37.164,-60.06 43.671,-62.968 46.604,-68.227C49.262,-72.743 49.086,-78.738 46.157,-83.085C42.895,-88.21 36.142,-90.701 30.334,-88.906M-34.322,-54.207C-35.991,-53.778 -37.562,-52.98 -38.891,-51.884C-43.337,-48.383 -44.522,-41.545 -41.537,-36.744C-38.69,-31.738 -31.942,-29.554 -26.703,-31.958C-21.3,-34.175 -18.273,-40.744 -20.143,-46.289C-21.819,-52.13 -28.462,-55.855 -34.322,-54.207M18.412,-47.332C17.181,-46.78 16.236,-45.622 15.979,-44.293C15.406,-41.848 17.438,-39.287 19.926,-39.202C22.604,-38.899 25.091,-41.553 24.515,-44.207C24.109,-46.907 20.842,-48.555 18.412,-47.332M5.672,-39.578C3.905,-38.539 2.18,-37.427 0.433,-36.351C-1.063,-35.525 -1.718,-33.513 -0.981,-31.971C-0.237,-30.167 2.188,-29.378 3.849,-30.404C5.611,-31.48 7.365,-32.568 9.112,-33.668C10.666,-34.642 11.112,-36.94 10.049,-38.429C9.148,-39.827 7.145,-40.379 5.672,-39.578M30.964,-22.482C27.893,-21.116 24.637,-20.106 21.799,-18.266C19.251,-16.704 16.797,-14.986 14.474,-13.108L14.376,-12.826C17.696,-9.186 20.939,-5.464 24.143,-1.722L24.408,-1.738C29.483,-6.851 34.42,-12.106 39.467,-17.243C38.437,-19.709 37.119,-22.049 36.056,-24.502C34.302,-24.008 32.669,-23.128 30.964,-22.482" style="fill:rgb(62,78,108);fill-rule:nonzero;"/>
    </g>
</svg>
